<svg width="106" height="91" xmlns="http://www.w3.org/2000/svg" class="iconLeft">
 <!---->
 <!---->
 <!---->
 <defs>
  <linearGradient y2="0%" x2="100%" y1="0%" x1="0%" id="110897f2-1ea6-430b-8c73-57af0f151563" gradientTransform="rotate(25)">
   <stop stop-color=" rgb(0, 118, 221)" offset="0%"/>
   <stop stop-color=" rgb(0, 205, 233)" offset="100%"/>
  </linearGradient>
 </defs>
 <!---->
 <g>
  <title>background</title>
  <rect fill="none" id="canvas_background" height="93" width="108" y="-1" x="-1"/>
 </g>
 <g>
  <title>Layer 1</title>
  <g fill="url(#110897f2-1ea6-430b-8c73-57af0f151563)" transform="matrix(1.0940171480178833,0,0,1.0940171480178833,-1.700857400894165,-9.868191719055176)" id="324155bd-3284-4919-b9e3-7fa46809933b">
   <path id="svg_2" d="m14.506,38.733a0.285,0.285 0 0 0 -0.116,-0.386l-6.111,-3.282a0.285,0.285 0 0 0 -0.27,0.501l6.112,3.282a0.284,0.284 0 0 0 0.385,-0.115m1.307,2.134a0.286,0.286 0 0 0 -0.117,-0.385l-7.418,-3.972a0.284,0.284 0 1 0 -0.268,0.501l7.418,3.973a0.288,0.288 0 0 0 0.385,-0.117m-4.721,19.923a0.707,0.707 0 0 0 0.297,0.957l9.704,5.106a0.71,0.71 0 0 0 0.661,-1.255l-9.705,-5.106a0.708,0.708 0 0 0 -0.957,0.298m0,-3.545a0.708,0.708 0 0 0 0.297,0.958l12.144,6.39a0.71,0.71 0 0 0 0.66,-1.254l-12.144,-6.391a0.708,0.708 0 0 0 -0.957,0.297m0,-3.545a0.708,0.708 0 0 0 0.297,0.958l17.835,9.387a0.71,0.71 0 1 0 0.66,-1.255l-17.835,-9.387a0.708,0.708 0 0 0 -0.957,0.297m0,-3.544a0.708,0.708 0 0 0 0.297,0.957l14.631,7.701a0.71,0.71 0 1 0 0.66,-1.256l-14.631,-7.699a0.71,0.71 0 0 0 -0.957,0.297m-3.197,-10.637a0.284,0.284 0 0 0 0.114,0.386l4.101,2.225a0.285,0.285 0 0 0 0.271,-0.5l-4.101,-2.225a0.283,0.283 0 0 0 -0.385,0.114m0,-1.446a0.283,0.283 0 0 0 0.115,0.385l5.096,2.749a0.286,0.286 0 0 0 0.135,0.035a0.284,0.284 0 0 0 0.135,-0.535l-5.096,-2.75a0.285,0.285 0 0 0 -0.385,0.116m59.547,-9.089l-13.81,7.268l-30.436,-16.019l13.809,-7.269l30.437,16.02zm-46.125,-7.762l30.437,16.02l-14.749,7.763l-30.437,-16.021l14.749,-7.762zm14.813,66.089l-30.63,-16.121l0,-40.79l30.63,16.121l0,40.79zm32.382,-56.911l0,18.24l-15.494,0l0,15.928l15.494,0l0,6.623l-30.63,16.12l0,-40.79l1.107,-0.583l29.523,-15.538zm13.736,10.451l0,7.789l-10.236,0l0,-20.15c0,-0.65 -0.36,-1.247 -0.936,-1.549l-33.255,-17.503a1.743,1.743 0 0 0 -1.631,0l-33.254,17.503a1.749,1.749 0 0 0 -0.936,1.549l0,43.757c0,0.649 0.36,1.246 0.935,1.548l33.255,17.503a1.743,1.743 0 0 0 1.631,0l33.255,-17.503c0.575,-0.302 0.936,-0.898 0.936,-1.548l0,-7.68l10.236,0l0,7.789l15.752,-15.752l-15.752,-15.753z"/>
  </g>
 </g>
</svg>