<?xml version="1.0" encoding="utf-8"?>
<!-- Generator: Adobe Illustrator 19.2.0, SVG Export Plug-In . SVG Version: 6.00 Build 0)  -->
<svg version="1.1" id="Layer_1" xmlns:sketch="http://www.bohemiancoding.com/sketch/ns"
	 xmlns="http://www.w3.org/2000/svg" xmlns:xlink="http://www.w3.org/1999/xlink" x="0px" y="0px" viewBox="0 0 128 128"
	 style="enable-background:new 0 0 128 128;" xml:space="preserve">
<style type="text/css">
	.st0{fill:#4CBB87;}
	.st1{fill:#FFFFFF;}
</style>
    <g id="AvailableForPickup" stroke="none" stroke-width="1" fill="none" fill-rule="evenodd">
        <g id="Fail" fill="#EF7414">
            <path d="M64,128 C99.346224,128 128,99.346224 128,64 C128,28.653776 99.346224,0 64,0 C28.653776,0 0,28.653776 0,64 C0,99.346224 28.653776,128 64,128 Z" id="Oval-7"></path>
        </g>
        <g id="Group" transform="translate(29.000000, 39.000000)" fill-rule="nonzero">
            <g id="product" transform="translate(14.000000, 0.000000)">
                <path d="M40.6470588,32.9076287 L40.6470588,11.3060661 L42.5294118,11.3060661 C43.0491728,11.3060661 43.4705882,10.8846507 43.4705882,10.3648896 L43.4705882,0.953124941 C43.4705882,0.432904471 43.0491728,0.0119484706 42.5294118,0.0119484706 L1.11764706,0.0119484706 C0.597886,0.0119484706 0.176470588,0.432904471 0.176470588,0.953124941 L0.176470588,10.3648896 C0.176470588,10.8846507 0.597886,11.3060661 1.11764706,11.3060661 L3,11.3060661 L3,30.1295955 L2.05882353,30.1295955 C-0.277114,30.1240809 -0.277114,46.1346507 2.05882353,46.1295979 L17.5128676,46.1295979 C18.5836398,46.1277574 19.6493566,45.9871324 20.6838235,45.7113971 C34.9751838,37.3229167 41.6295956,33.0549939 40.6470588,32.9076287 Z" id="Shape" fill="#FFFFFF"></path>
                <path d="M17.1176471,15.070772 L26.5294118,15.070772 C27.0491728,15.070772 27.4705882,14.6493566 27.4705882,14.1295955 C27.4705882,13.6093751 27.0491728,13.1884191 26.5294118,13.1884191 L17.1176471,13.1884191 C16.597886,13.1884191 16.1764706,13.6093751 16.1764706,14.1295955 C16.1764706,14.6493566 16.597886,15.070772 17.1176471,15.070772 Z" id="Path" fill="#EF7414"></path>
            </g>
            <g id="money" transform="translate(0.000000, 19.000000)">
                <path d="M69.3493297,0.674503055 L46.1593734,14.1833463 C46.1403414,10.6565822 43.2766238,7.80664545 39.7483493,7.80317347 L14.1209216,7.80317347 C14.0163862,7.80329185 13.9122316,7.81576802 13.8106281,7.84034202 L10.2204546,8.73751377 C10.0455359,6.76285194 8.39422097,5.24667135 6.41102408,5.2398256 L3.84661445,5.2398256 C1.72218795,5.2398256 0,6.9613005 0,9.0848474 L0,32.1549782 C0,34.2785251 1.72218795,36 3.84661445,36 L6.41102408,36 C8.38838685,35.9939537 10.0374595,34.4870446 10.2204546,32.5189736 L13.797806,33.3994836 C13.8981049,33.424054 14.0009861,33.4365323 14.104253,33.4366521 L31.7217471,33.4366521 C32.8556944,33.4365481 33.9693262,33.1358107 34.9490567,32.5651139 L74.4627625,9.55009504 C76.889705,8.11410786 77.7174879,4.99880409 76.3232417,2.54831035 C74.90699,0.11645012 71.7944891,-0.719841889 69.3493297,0.674503055 Z" id="Shape" fill="#EF7414"></path>
                <path d="M8,31.75 C8,32.4403559 7.44035594,33 6.75,33 L4.25,33 C3.55964406,33 3,32.4403559 3,31.75 L3,9.25 C3,8.55964406 3.55964406,8 4.25,8 L6.75,8 C7.44035594,8 8,8.55964406 8,9.25 L8,31.75 Z" id="Path" fill="#FFFFFF"></path>
                <path d="M72.7373182,7.73373464 L39.4085175,29.050442 C38.8223925,29.388883 32.0826716,31 31.4042862,31 L13.9918866,31 L10,30.0257156 L10,11.7195586 L14.0085088,10.7288039 L39.4085175,10.7288039 C40.7891995,10.7255139 42.0646261,11.4593915 42.74607,12.6492243 C43.4275139,13.839057 43.4093106,15.3003499 42.6984355,16.4731541 C42.5383444,16.7407982 42.3473995,16.9890972 42.1294446,17.2130527 C41.4072473,17.9273457 40.4289259,18.3291297 39.4085175,18.3305024 L26.6222055,18.3305024 L26.6222055,20.8644019 L39.4085175,20.8644019 C41.5375162,20.8771525 43.5294541,19.8252535 44.7058865,18.0669769 L70.206907,3.33995288 C70.7870703,3.00400869 71.4789119,2.91246886 72.1277081,3.08580537 C72.7765044,3.25914188 73.3281271,3.68289347 73.6592112,4.26229231 C74.3582495,5.47498874 73.9482083,7.01902277 72.7373182,7.73373464 Z" id="Path" fill="#FFFFFF"></path>
            </g>
        </g>
    </g>
</svg>