<svg data-v-423bf9ae="" xmlns="http://www.w3.org/2000/svg" viewBox="0 0 440 91" class="iconLeft"><!----><!----><!----><g data-v-423bf9ae="" id="6a99fe63-eda0-40cb-9de3-d574db6bd7f4" fill="#012B3D" transform="matrix(5.864833831787109,0,0,5.864833831787109,123.67396545410156,-3.991981029510498)"><path d="M3.26 5.28L0.75 5.28L0.75 5.28Q0.23 5.28 0.23 4.83L0.23 4.83L0.23 3.97L0.23 3.97Q0.23 3.53 0.75 3.53L0.75 3.53L7.77 3.53L7.77 3.53Q8.29 3.53 8.29 3.97L8.29 3.97L8.29 4.83L8.29 4.83Q8.29 5.28 7.77 5.28L7.77 5.28L5.26 5.28L5.26 12.95L5.26 12.95Q5.26 13.33 4.92 13.33L4.92 13.33L3.60 13.33L3.60 13.33Q3.26 13.33 3.26 12.95L3.26 12.95L3.26 5.28ZM8.78 13.33L7.69 13.33L7.69 13.33Q7.28 13.33 7.28 12.92L7.28 12.92L7.28 6.56L7.28 6.56Q7.28 6.15 7.69 6.15L7.69 6.15L8.77 6.15L8.77 6.15Q9.18 6.15 9.18 6.56L9.18 6.56L9.18 7.12L9.21 7.12L9.21 7.12Q9.39 6.69 9.80 6.35L9.80 6.35L9.80 6.35Q10.22 6.02 10.79 6.02L10.79 6.02L10.79 6.02Q11.18 6.02 11.43 6.11L11.43 6.11L11.43 6.11Q11.67 6.20 11.61 6.44L11.61 6.44L11.42 7.25L11.42 7.25Q11.36 7.53 11.05 7.42L11.05 7.42L11.05 7.42Q10.88 7.36 10.71 7.36L10.71 7.36L10.71 7.36Q10.06 7.36 9.63 8.14L9.63 8.14L9.63 8.14Q9.19 8.93 9.19 10.43L9.19 10.43L9.19 12.92L9.19 12.92Q9.19 13.33 8.78 13.33L8.78 13.33ZM12.27 11.42L12.27 11.42L12.27 11.42Q12.27 10.05 13.58 9.43L13.58 9.43L13.58 9.43Q14.88 8.82 16.56 8.78L16.56 8.78L16.56 8.50L16.56 8.50Q16.56 7.88 16.24 7.62L16.24 7.62L16.24 7.62Q15.93 7.36 15.37 7.36L15.37 7.36L15.37 7.36Q14.97 7.36 14.67 7.47L14.67 7.47L14.67 7.47Q14.36 7.58 14.14 7.73L14.14 7.73L14.14 7.73Q13.92 7.88 13.74 8.03L13.74 8.03L13.74 8.03Q13.43 8.30 13.22 8.05L13.22 8.05L12.65 7.36L12.65 7.36Q12.44 7.10 12.76 6.82L12.76 6.82L12.76 6.82Q13.00 6.61 13.31 6.45L13.31 6.45L13.31 6.45Q13.63 6.30 14.16 6.16L14.16 6.16L14.16 6.16Q14.68 6.02 15.52 6.02L15.52 6.02L15.52 6.02Q16.95 6.02 17.71 6.67L17.71 6.67L17.71 6.67Q18.47 7.33 18.47 8.61L18.47 8.61L18.47 12.92L18.47 12.92Q18.47 13.33 18.06 13.33L18.06 13.33L16.94 13.33L16.94 13.33Q16.57 13.33 16.57 12.92L16.57 12.92L16.57 12.71L16.56 12.71L16.56 12.71Q16.15 13.10 15.59 13.29L15.59 13.29L15.59 13.29Q15.03 13.47 14.55 13.47L14.55 13.47L14.55 13.47Q13.43 13.47 12.85 12.92L12.85 12.92L12.85 12.92Q12.27 12.37 12.27 11.42ZM14.29 11.38L14.29 11.38L14.29 11.38Q14.29 11.61 14.39 11.79L14.39 11.79L14.39 11.79Q14.49 11.96 14.69 12.04L14.69 12.04L14.69 12.04Q14.90 12.13 15.15 12.13L15.15 12.13L15.15 12.13Q15.50 12.13 15.83 12.03L15.83 12.03L15.83 12.03Q16.15 11.94 16.56 11.58L16.56 11.58L16.56 10.10L16.56 10.10Q15.41 10.23 15.02 10.43L15.02 10.43L15.02 10.43Q14.63 10.64 14.46 10.86L14.46 10.86L14.46 10.86Q14.29 11.07 14.29 11.38ZM19.95 9.74L19.95 9.74L19.95 9.74Q19.95 8.00 20.82 7.01L20.82 7.01L20.82 7.01Q21.70 6.02 23.51 6.02L23.51 6.02L23.51 6.02Q24.57 6.02 25.16 6.30L25.16 6.30L25.16 6.30Q25.74 6.58 26.10 7.12L26.10 7.12L26.10 7.12Q26.31 7.44 26.03 7.62L26.03 7.62L25.31 8.10L25.31 8.10Q25.00 8.31 24.77 7.94L24.77 7.94L24.77 7.94Q24.65 7.77 24.32 7.56L24.32 7.56L24.32 7.56Q23.99 7.36 23.51 7.36L23.51 7.36L23.51 7.36Q22.74 7.36 22.35 7.90L22.35 7.90L22.35 7.90Q21.97 8.44 21.97 9.74L21.97 9.74L21.97 9.74Q21.97 11.04 22.35 11.58L22.35 11.58L22.35 11.58Q22.74 12.13 23.51 12.13L23.51 12.13L23.51 12.13Q24.06 12.13 24.40 11.89L24.40 11.89L24.40 11.89Q24.75 11.66 25.05 11.29L25.05 11.29L25.05 11.29Q25.31 10.98 25.59 11.20L25.59 11.20L26.23 11.70L26.23 11.70Q26.52 11.93 26.26 12.30L26.26 12.30L26.26 12.30Q26.00 12.70 25.36 13.08L25.36 13.08L25.36 13.08Q24.72 13.47 23.51 13.47L23.51 13.47L23.51 13.47Q21.70 13.47 20.82 12.48L20.82 12.48L20.82 12.48Q19.95 11.48 19.95 9.74ZM29.26 13.33L28.16 13.33L28.16 13.33Q27.75 13.33 27.75 12.92L27.75 12.92L27.75 3.65L27.75 3.65Q27.75 3.24 28.16 3.24L28.16 3.24L29.26 3.24L29.26 3.24Q29.67 3.24 29.67 3.65L29.67 3.65L29.67 8.67L29.67 8.67Q29.67 8.95 29.64 9.22L29.64 9.22L29.67 9.22L31.83 6.43L31.83 6.43Q32.05 6.15 32.37 6.15L32.37 6.15L33.49 6.15L33.49 6.15Q34.12 6.15 33.70 6.66L33.70 6.66L31.64 9.15L34.03 12.82L34.03 12.82Q34.36 13.33 33.82 13.33L33.82 13.33L32.65 13.33L32.65 13.33Q32.31 13.33 32.09 12.97L32.09 12.97L30.54 10.48L29.67 11.53L29.67 12.92L29.67 12.92Q29.67 13.33 29.26 13.33L29.26 13.33ZM38.75 13.33L36.09 13.33L36.09 13.33Q35.54 13.33 35.54 12.82L35.54 12.82L35.54 4.04L35.54 4.04Q35.54 3.53 36.09 3.53L36.09 3.53L38.41 3.53L38.41 3.53Q41.04 3.53 41.96 4.17L41.96 4.17L41.96 4.17Q42.88 4.82 42.88 6.16L42.88 6.16L42.88 6.16Q42.88 7.10 42.19 7.61L42.19 7.61L42.19 7.61Q41.50 8.12 40.86 8.20L40.86 8.20L40.86 8.22L40.86 8.22Q41.48 8.26 42.32 8.85L42.32 8.85L42.32 8.85Q43.16 9.44 43.16 10.51L43.16 10.51L43.16 10.51Q43.16 11.77 42.14 12.55L42.14 12.55L42.14 12.55Q41.11 13.33 38.75 13.33L38.75 13.33ZM37.54 9.11L37.54 11.66L38.53 11.66L38.53 11.66Q39.98 11.66 40.51 11.41L40.51 11.41L40.51 11.41Q41.03 11.16 41.03 10.38L41.03 10.38L41.03 10.38Q41.03 9.66 40.42 9.38L40.42 9.38L40.42 9.38Q39.82 9.11 38.53 9.11L38.53 9.11L37.54 9.11ZM37.54 5.20L37.54 7.49L38.43 7.49L38.43 7.49Q39.31 7.49 40.08 7.18L40.08 7.18L40.08 7.18Q40.85 6.88 40.85 6.23L40.85 6.23L40.85 6.23Q40.85 5.72 40.42 5.46L40.42 5.46L40.42 5.46Q40.00 5.20 38.43 5.20L38.43 5.20L37.54 5.20ZM46.31 13.33L45.21 13.33L45.21 13.33Q44.80 13.33 44.80 12.92L44.80 12.92L44.80 6.56L44.80 6.56Q44.80 6.15 45.21 6.15L45.21 6.15L46.31 6.15L46.31 6.15Q46.72 6.15 46.72 6.56L46.72 6.56L46.72 12.92L46.72 12.92Q46.72 13.33 46.31 13.33L46.31 13.33ZM46.31 5.10L45.21 5.10L45.21 5.10Q44.80 5.10 44.80 4.69L44.80 4.69L44.80 3.81L44.80 3.81Q44.80 3.40 45.21 3.40L45.21 3.40L46.31 3.40L46.31 3.40Q46.72 3.40 46.72 3.81L46.72 3.81L46.72 4.69L46.72 4.69Q46.72 5.10 46.31 5.10L46.31 5.10ZM53.47 13.33L48.41 13.33L48.41 13.33Q48.00 13.33 48.00 12.99L48.00 12.99L48.00 12.47L48.00 12.47Q48.00 12.11 48.28 11.73L48.28 11.73L51.34 7.52L51.34 7.49L51.34 7.49Q51.07 7.52 50.80 7.52L50.80 7.52L48.58 7.52L48.58 7.52Q48.17 7.52 48.17 7.18L48.17 7.18L48.17 6.96L48.17 6.96Q48.17 6.15 48.58 6.15L48.58 6.15L53.31 6.15L53.31 6.15Q53.72 6.15 53.72 6.49L53.72 6.49L53.72 6.97L53.72 6.97Q53.72 7.31 53.42 7.71L53.42 7.71L50.34 11.96L50.34 11.99L50.34 11.99Q50.70 11.96 50.89 11.96L50.89 11.96L53.47 11.96L53.47 11.96Q53.88 11.96 53.88 12.30L53.88 12.30L53.88 12.99L53.88 12.99Q53.88 13.33 53.47 13.33L53.47 13.33Z"></path></g><defs data-v-423bf9ae=""><linearGradient data-v-423bf9ae="" gradientTransform="rotate(25)" id="110897f2-1ea6-430b-8c73-57af0f151563" x1="0%" y1="0%" x2="100%" y2="0%"><stop data-v-423bf9ae="" offset="0%" style="stop-color: rgb(0, 118, 221); stop-opacity: 1;"></stop><stop data-v-423bf9ae="" offset="100%" style="stop-color: rgb(0, 205, 233); stop-opacity: 1;"></stop></linearGradient></defs><g data-v-423bf9ae="" id="324155bd-3284-4919-b9e3-7fa46809933b" transform="matrix(1.0940171480178833,0,0,1.0940171480178833,-1.700857400894165,-9.868191719055176)" stroke="none" fill="url(#110897f2-1ea6-430b-8c73-57af0f151563)"><path d="M14.506 38.733a.285.285 0 0 0-.116-.386l-6.111-3.282a.285.285 0 0 0-.27.501l6.112 3.282a.284.284 0 0 0 .385-.115m1.307 2.134a.286.286 0 0 0-.117-.385L8.278 36.51a.284.284 0 1 0-.268.501l7.418 3.973a.288.288 0 0 0 .385-.117M11.092 60.79a.707.707 0 0 0 .297.957l9.704 5.106a.71.71 0 0 0 .661-1.255l-9.705-5.106a.708.708 0 0 0-.957.298m0-3.545a.708.708 0 0 0 .297.958l12.144 6.39a.71.71 0 0 0 .66-1.254l-12.144-6.391a.708.708 0 0 0-.957.297m0-3.545a.708.708 0 0 0 .297.958l17.835 9.387a.71.71 0 1 0 .66-1.255l-17.835-9.387a.708.708 0 0 0-.957.297m0-3.544a.708.708 0 0 0 .297.957l14.631 7.701a.71.71 0 1 0 .66-1.256l-14.631-7.699a.71.71 0 0 0-.957.297M7.895 39.519a.284.284 0 0 0 .114.386l4.101 2.225a.285.285 0 0 0 .271-.5L8.28 39.405a.283.283 0 0 0-.385.114m0-1.446a.283.283 0 0 0 .115.385l5.096 2.749a.286.286 0 0 0 .135.035.284.284 0 0 0 .135-.535l-5.096-2.75a.285.285 0 0 0-.385.116m59.547-9.089l-13.81 7.268-30.436-16.019 13.809-7.269 30.437 16.02zm-46.125-7.762l30.437 16.02-14.749 7.763L6.568 28.984l14.749-7.762zM36.13 87.311L5.5 71.19V30.4l30.63 16.121v40.79zM68.512 30.4v18.24H53.018v15.928h15.494v6.623l-30.63 16.12v-40.79l1.107-.583L68.512 30.4zm13.736 10.451v7.789H72.012V28.49c0-.65-.36-1.247-.936-1.549L37.821 9.438a1.743 1.743 0 0 0-1.631 0L2.936 26.941A1.749 1.749 0 0 0 2 28.49v43.757c0 .649.36 1.246.935 1.548L36.19 91.298a1.743 1.743 0 0 0 1.631 0l33.255-17.503c.575-.302.936-.898.936-1.548v-7.68h10.236v7.789L98 56.604 82.248 40.851z"></path></g><!----></svg>